<?xml version="1.0" encoding="UTF-8" standalone="no"?>
<!DOCTYPE svg PUBLIC "-//W3C//DTD SVG 1.1//EN" "http://www.w3.org/Graphics/SVG/1.1/DTD/svg11.dtd">
<svg xmlns="http://www.w3.org/2000/svg" xmlns:xl="http://www.w3.org/1999/xlink" version="1.1" viewBox="168 189 371 245" width="371pt" height="245pt" xmlns:dc="http://purl.org/dc/elements/1.1/">
  <metadata> Produced by OmniGraffle 7.4 
    <dc:date>2019-12-01 08:26:57 +0000</dc:date>
  </metadata>
  <defs/>
  <g stroke="none" stroke-opacity="1" stroke-dasharray="none" fill="none" fill-opacity="1">
    <title>Canvas 1</title>
    <rect fill="white" width="370.27344" height="244.77344"/>
    <g>
      <title>Layer 1</title>
      <path d="M 169 190 L 169 432.77344 L 537.27344 432.77344" stroke="#7f8080" stroke-linecap="round" stroke-linejoin="round" stroke-width="2"/>
      <path d="M 185.5 232 L 493.6387 394.28927 L 493.6387 394.28927" stroke="#0432ff" stroke-linecap="round" stroke-linejoin="round" stroke-width="3"/>
      <path d="M 184.56936 198.28927 L 185.06936 230.78927 L 494.56936 394.28927 L 494.06936 360.28927 Z" fill="lime" fill-opacity=".5"/>
      <path d="M 184.56936 198.28927 L 185.06936 230.78927 L 494.56936 394.28927 L 494.06936 360.28927 Z" stroke="white" stroke-linecap="round" stroke-linejoin="round" stroke-width="0"/>
      <path d="M 185.5 234.32589 L 186 266.8259 L 495.5 430.3259 L 495 396.3259 Z" fill="lime" fill-opacity=".5"/>
      <circle cx="293.25" cy="288.65" r="6.4500125" fill="black"/>
      <circle cx="345.65" cy="340.45" r="6.4500125" fill="black"/>
      <circle cx="345.65" cy="296.28927" r="6.4500125" fill="black"/>
      <circle cx="275.45" cy="225.55" r="6.4500125" fill="black"/>
      <circle cx="388.45" cy="394.95" r="6.4500125" fill="black"/>
      <circle cx="226.95" cy="311.38672" r="6.4500125" fill="black"/>
      <line x1="275.30258" y1="231.99833" x2="274.23413" y2="278.73413" stroke="#ff2600" stroke-linecap="round" stroke-linejoin="round" stroke-width="2"/>
      <line x1="226.98987" y1="304.93684" x2="227.30458" y2="254.01747" stroke="#ff2600" stroke-linecap="round" stroke-linejoin="round" stroke-width="2"/>
      <line x1="388.4751" y1="388.50005" x2="388.6679" y2="339.00365" stroke="#ff2600" stroke-linecap="round" stroke-linejoin="round" stroke-width="2"/>
    </g>
  </g>
</svg>
